<svg xmlns="http://www.w3.org/2000/svg" viewBox="0 0 590 205"><path d="M278.2 37.1c4.3 0 7.6-1.6 10.1-4.3l-2.7-2.7c-1.9 2.1-4.3 3.2-7.2 3.2-4.8 0-8-3-8.2-8h19.2c0-.3.1-.8.1-1.6 0-6.8-4.5-12.2-11.7-12.2-7.5 0-12 5.7-12 12.9-.1 7.3 4.5 12.7 12.4 12.7zm-.5-22c3.9 0 7.1 2.4 7.5 7.1h-15c.3-4.1 3.2-7.1 7.5-7.1zM169.8 3h-4.1v4.3h4.1zm362.1 191h4.6v-22.1h-4.6zM201.8 23c0-4.6 3.2-7.6 7.4-7.6 4.6 0 5.5 3.4 5.5 6.3v14.8h4.1V20.8c0-5.8-3.3-9.3-8.6-9.3-3.6 0-6.3 1.6-8.4 4.6V3h-4.1v33.6h4.1zm-16.6 14.1c4.5 0 7.8-2.2 9.9-5.1l-3.2-2.3c-1.4 2.1-3.5 3.7-6.6 3.7-4.7 0-7.6-3.9-7.6-9.1s2.9-9.1 7.7-9.1c2.9 0 5.1 1.5 6.5 3.8l3.1-2.4c-2.1-3.1-5.4-5.1-9.7-5.1-7.2 0-11.8 5.5-11.8 12.8-.2 7.3 4.4 12.8 11.7 12.8zm77-34.1h-4.1v33.6h4.1zm-27.7 34.1c4.3 0 7.6-1.6 10.1-4.3l-2.7-2.7c-1.9 2.1-4.3 3.2-7.2 3.2-4.8 0-8-3-8.2-8h19.2c0-.3.1-.8.1-1.6 0-6.8-4.5-12.2-11.7-12.2-7.5 0-12 5.7-12 12.9-.1 7.3 4.4 12.7 12.4 12.7zm-.6-22c3.9 0 7.1 2.4 7.5 7.1h-15c.4-4.1 3.2-7.1 7.5-7.1zM253.1 3H249v33.6h4.1zm271.5 187.4c-1.9 0-3-1.1-3-3.3v-11.6h6.8v-3.6h-6.8V166h-4.7v5.9h-3.7v3.6h3.7v11.6c0 2.1.3 3.5 1 4.6 1.2 1.9 3.3 2.8 6 2.8 2.1 0 3.9-.6 5.3-1.6l-1.8-3.4c-.7.4-1.6.9-2.8.9zM327.5 27.6c0-3.6-1.8-6.6-5.4-8 2.5-1.3 4.1-3.7 4.1-6.8 0-4.7-3.7-7.5-10.1-7.5H303v31.3h14.2c6.8 0 10.3-4 10.3-9zM307.3 9.3h8.6c3.9 0 5.8 1.3 5.8 4.1 0 2.9-2 4.8-5.6 4.8h-8.8zm0 23.3V22h9.8c3.9 0 5.7 2.3 5.7 5.4 0 3.3-2.1 5.3-5.9 5.3h-9.6zm116.2 138.8c-6.8 0-11.2 4.8-11.2 11.6 0 6.7 4.3 11.5 11.2 11.5 6.8 0 11.2-4.8 11.2-11.5 0-6.8-4.4-11.6-11.2-11.6zm0 19.1c-4 0-6.3-3.2-6.3-7.5s2.3-7.5 6.3-7.5 6.2 3.2 6.2 7.5c0 4.2-2.2 7.5-6.2 7.5zm-29-155.1c3.5 0 7-1.5 8.9-4.6v2.6c0 5.7-3.8 8-8.8 8-3.2 0-6-1-8.2-2.5l-2.1 3.3c2.8 1.9 6.2 2.9 10.2 2.9 4.1 0 7.9-1 10.3-3.8 2-2.2 2.6-5.1 2.6-8.8V12.1h-4.1v4c-2-3.2-5.2-4.6-8.7-4.6-6.5 0-11.2 5.1-11.2 12 .1 6.9 4.6 11.9 11.1 11.9zm1-20.1c5.2 0 8 3.6 8 8.1 0 4.6-2.9 8.3-8 8.3-5.2 0-7.7-3.8-7.7-8.3 0-4.4 2.5-8.1 7.7-8.1zm156 156.1c-6.8 0-11.2 4.8-11.2 11.6 0 6.7 4.3 11.5 11.2 11.5 6.8 0 11.2-4.8 11.2-11.5 0-6.8-4.3-11.6-11.2-11.6zm0 19.1c-4 0-6.3-3.2-6.3-7.5s2.3-7.5 6.3-7.5 6.2 3.2 6.2 7.5c.1 4.2-2.2 7.5-6.2 7.5zM447.6 33.6c-3.3 0-6.2-1.4-8-4l-3 2.3c2.2 3.3 6 5.2 10.8 5.2 6.3 0 10-3.1 10-7.8 0-5.2-4.7-6.3-9.5-7.3-3.3-.6-6.1-1.2-6.1-3.7 0-2.3 2.6-3.3 5.2-3.3 3 0 5.5 1.1 7.2 3.2l2.7-2.6c-1.9-2-5.3-4.1-9.9-4.1-4.8 0-9.2 2.2-9.2 7.2 0 4.8 3.9 6.2 8.7 7.1 4.5.8 6.7 1.3 6.7 3.8.1 2.7-2.3 4-5.6 4zm-24 3.5c4.3 0 7.6-1.6 10.1-4.3l-2.7-2.7c-1.9 2.1-4.3 3.2-7.2 3.2-4.8 0-8-3-8.2-8h19.2c0-.3.1-.8.1-1.6 0-6.8-4.5-12.2-11.7-12.2-7.5 0-12 5.7-12 12.9-.1 7.3 4.5 12.7 12.4 12.7zm-.5-22c3.9 0 7 2.4 7.5 7.1h-15c.3-4.1 3.2-7.1 7.5-7.1zM352.4 3h-4.1v4.3h4.1zm0 9.1h-4.1v24.5h4.1zm14.8 25c3.3 0 6.4-1.3 8.7-4.6v4h4.1V3h-4.1v13.2c-2.3-3.3-5.4-4.6-8.7-4.6-7 0-11.2 5.6-11.2 12.8s4.3 12.7 11.2 12.7zm.8-21.7c5.2 0 7.9 3.9 7.9 9 0 5-2.7 9-7.9 9s-7.7-4.1-7.7-9c0-5 2.5-9 7.7-9zm-32.5 8.4c0-5.3 3.1-8.1 6.3-8.1 1.1 0 2 .3 2.8.8l1.3-3.9c-.7-.5-1.9-.9-3.3-.9-3 0-5.5 2-7.1 4.6v-4.1h-4.1v24.5h4.1zm196.4 144.6h4.6V164h-4.6zm46.5 3c-3 0-5.4 1.3-7.2 3.7v-3.2h-4.6V194h4.6v-12.4c0-3.7 2.6-6 5.8-6 3.6 0 4.4 2.6 4.4 5V194h4.6v-14.4c0-4.9-2.8-8.2-7.6-8.2zm-377.9 7.5c2.2-1.2 3.7-3.3 3.7-6 0-4.3-3.4-6.9-9.2-6.9h-12.3v28h13.1c6.2 0 9.5-3.4 9.5-8.1 0-3.1-1.6-5.7-4.8-7zm-12.9-8.6h7.1c2.9 0 4.5 1 4.5 3.3s-1.6 3.7-4.4 3.7h-7.3v-7zm8 19.4h-8v-8.3h8.1c3 0 4.5 1.8 4.5 4.2 0 2.6-1.7 4.1-4.6 4.1zm95.1-19.4h9.2V194h4.9v-23.7h9.2V166h-23.4v4.3zm-40.4 4.9c-2-2.6-4.5-3.7-7.4-3.7-6.3 0-10.1 5-10.1 11.6 0 6.5 3.9 11.5 10.1 11.5 2.9 0 5.5-1.1 7.4-3.7v3.2h4.7v-30h-4.7zm-6.5 15.1c-4.2 0-6.2-3.3-6.2-7.4s2-7.4 6.2-7.4 6.4 3.3 6.4 7.4c.1 4.2-2.1 7.4-6.4 7.4zm-24.7-18.9c-6.8 0-11.2 4.8-11.2 11.6 0 6.7 4.3 11.5 11.2 11.5 6.8 0 11.2-4.8 11.2-11.5 0-6.8-4.3-11.6-11.2-11.6zm0 19.1c-4 0-6.3-3.2-6.3-7.5s2.3-7.5 6.3-7.5 6.2 3.2 6.2 7.5c0 4.2-2.2 7.5-6.2 7.5zm99.9-15v-3.6h-4.6V194h4.6v-11.2c0-4.2 2.5-6.6 5.3-6.6 1 0 1.8.3 2.5.7l1.3-4.5c-.6-.4-1.7-.8-2.9-.8-2.6-.1-4.7 1.6-6.2 3.9zm-50 12.4l-6.3-15.9h-5.3l9.2 21.8-.6 1.2c-.8 1.6-1.7 2.9-3.5 2.9-1 0-1.8-.3-2.6-.9l-1.9 3.3c1.4 1 3.1 1.5 5 1.5 4.2 0 6.1-2.3 7.9-6.8l8.7-22.9h-5zM401.1 170v2h-3.7v3.6h3.7V194h4.7v-18.5h5v-3.6h-5v-2.1c0-1.9 1-2.6 2.8-2.6 1.1 0 2 .3 2.6.4l.5-3.7c-.9-.3-2.3-.5-3.6-.5-4.4.1-7 2.5-7 6.6zm-14 10.6c-2.9-.5-5.2-.9-5.2-2.9 0-1.7 2-2.5 4.1-2.5 2.8 0 5.1 1.1 6.6 2.8l2.9-2.7c-1.8-1.9-5-3.9-9.5-3.9-4.6 0-8.7 2.1-8.7 6.7 0 4.5 3.7 5.8 8.3 6.6 3.6.6 5.6 1 5.6 3 0 1.9-1.8 2.9-4.6 2.9-2.9 0-5.5-1.1-7.2-3.5l-3.3 2.3c2.1 3.2 5.8 5 10.2 5 5.9 0 9.4-2.9 9.4-7.2.1-4.6-3.9-5.8-8.6-6.6zm56-5.1v-3.6h-4.6V194h4.6v-11.2c0-4.2 2.5-6.6 5.3-6.6 1 0 1.8.3 2.5.7l1.3-4.5c-.6-.4-1.7-.8-2.9-.8-2.6-.1-4.7 1.6-6.2 3.9zm-77.5-4.1c-3 0-5.4 1.3-7.2 3.7v-3.2h-4.6V194h4.6v-12.4c0-3.7 2.6-6 5.8-6 3.6 0 4.4 2.6 4.4 5V194h4.6v-14.4c0-4.9-2.8-8.2-7.6-8.2zm-16.3 19.5c-1.1 0-1.6-.6-1.6-2v-10c0-5.3-3.7-7.4-8.9-7.4-3.4 0-6.3.9-9.1 2.7l1.8 3.5c2.1-1.5 4.6-2.2 6.9-2.2 2.1 0 4.5.6 4.5 2.8 0 2.1-2.4 2.4-5.6 2.8-3.8.4-8.6 1.3-8.6 6.7 0 4.3 3 6.8 7.6 6.8 2.6 0 5.5-.8 7.4-3.4.5 2.3 2.4 3.3 4.4 3.3.8 0 2.1-.2 2.9-.5l-.5-3.2c-.2 0-.7.1-1.2.1zm-6.2-5.3c0 3.7-2.6 5.3-5.5 5.3-2.3 0-4-1-4-3.3s1.7-3 4.1-3.4 4.2-.4 5.5-2v3.4zm168.3 5.3c-1.1 0-1.6-.6-1.6-2v-10c0-5.3-3.7-7.4-8.9-7.4-3.4 0-6.3.9-9.1 2.7l1.8 3.5c2.1-1.5 4.6-2.2 6.9-2.2 2.1 0 4.5.6 4.5 2.8 0 2.1-2.4 2.4-5.6 2.8-3.8.4-8.6 1.3-8.6 6.7 0 4.3 3 6.8 7.6 6.8 2.6 0 5.5-.8 7.4-3.4.5 2.3 2.4 3.3 4.4 3.3.8 0 2.1-.2 2.9-.5l-.5-3.2c-.2 0-.8.1-1.2.1zm-6.2-5.3c0 3.7-2.6 5.3-5.5 5.3-2.3 0-4-1-4-3.3s1.7-3 4.1-3.4 4.2-.4 5.5-2v3.4zm-417.7 1.9L81.4 166h-4.5l-6.2 21.4-5.4-21.4H60l7.6 28h5.5l5.9-20.8 5.9 20.8h5.4l7.8-28h-5.3zm-41-13.2c0-5.4-4.1-8.7-9.6-8.7-4.6 0-8 2.4-10.2 5.8l3.9 2.3c1.2-2.2 3.3-3.7 5.9-3.7 2.8 0 4.9 1.6 4.9 4.6 0 3.9-3.7 7.8-14 16v3.5h20.2v-4.3H34.5c8.4-6.3 12-10.7 12-15.5zM17 166h-3.7c-1.8 1.8-4.5 2.8-8.7 3.6l.6 3.8c2.6-.3 5.4-1.1 6.9-1.8V190H5.2v4.1h18.3V190H17zM169.8 12.1h-4.1v24.5h4.1zm-36.9-2.3l10.3 26.8h3.8l10.2-26.8v26.8h4.3V5.3h-6.4l-9.9 25.8-9.9-25.8h-6.6v31.3h4.2zm-23.3 161.6c-6.9 0-11.1 5.1-11.1 11.6s4.1 11.4 11.6 11.4c4.2 0 7.3-1.6 9.6-4l-3-2.9c-1.6 1.8-3.8 2.8-6.4 2.8-3.9 0-6.6-2.2-6.8-6.3h16.8c0-.4.1-.9.1-1.6 0-6.2-4.1-11-10.8-11zm-6 9.4c.3-3.3 2.6-5.6 6.1-5.6 3.2 0 5.7 1.9 6 5.6zm376.6-9.4c-3.1 0-5.8 1.5-7.7 4.2-1-2.7-3.2-4.2-6.4-4.2-2.9 0-5.1 1.3-6.9 3.7v-3.2h-4.6V194h4.6v-12.4c0-3.6 2.3-5.9 5.4-5.9 3.5 0 4.2 2.5 4.2 4.9V194h4.6v-12.4c0-3.6 2.4-5.9 5.4-5.9 3.5 0 4.2 2.5 4.2 4.9V194h4.6v-14.5c0-4.9-2.5-8.1-7.4-8.1zm-311.6.5h-5.7l-10.1 10.6V164h-4.6v30h4.6v-6l3.9-4 7.3 10h5.7l-9.7-13.2zm-34.8-.5c-6.9 0-11.1 5.1-11.1 11.6s4.1 11.4 11.6 11.4c4.2 0 7.3-1.6 9.6-4l-3-2.9c-1.6 1.8-3.8 2.8-6.4 2.8-3.9 0-6.6-2.2-6.8-6.3h16.8c0-.4.1-.9.1-1.6-.1-6.2-4.2-11-10.8-11zm-6.1 9.4c.3-3.3 2.6-5.6 6.1-5.6 3.2 0 5.7 1.9 6 5.6zM479 59.4h-77.1v5c-5.1-3.2-12.2-5-20.9-5h-62.2L308 111.6l-13.9-52.2h-21.8l-13.9 51.9-10.6-51.9h-27.3l2 7.4c-6-5.8-14.9-9-25.6-9-16.9 0-28.5 9-36.1 21.9l19.6 10.4c3.3-7.6 8.7-11.1 14.1-11.1 5.5 0 9.8 3.8 9.8 9.4 0 9.7-8.3 18.3-35.3 37.6h-14.4V59.4h-18.3c-6.2 5.6-14.9 8.7-28.9 11l2.9 18.4c6.7-.7 14.4-2.1 19.8-3.8v41.2h-20.3v21.2h122.6v-21.2h-33.6l2-1.1c17-9.6 26.2-20.5 28.9-31.3l14.2 53.6h26.8l12.4-48.2 12.3 48.2h26.8v-.1h-.1l20.5-73.7h6l-11.8 42.3v31.6h46.5c19.4 0 31.3-9.8 31.3-25.9 0-9-4.9-16.4-14.1-19.9 7.4-4 11.4-11.2 11.4-18.8v-1.2H428v65.8h25V81.6h26zM361.9 80.7h16.9c4.6 0 7.9 1.7 7.9 5.9s-3.3 6.2-7.9 6.2h-16.9zm19.3 45.4h-19.3v-13.9h19.3c4.6 0 7.9 2.7 7.9 7 0 4.4-3.3 6.9-7.9 6.9z" fill="#007de0"/></svg>